<?xml version="1.0" encoding="utf-8"?>
<!-- Generator: Adobe Illustrator 25.0.0, SVG Export Plug-In . SVG Version: 6.00 Build 0)  -->
<svg version="1.1" id="Camada_1" xmlns="http://www.w3.org/2000/svg" xmlns:xlink="http://www.w3.org/1999/xlink" x="0px" y="0px"
	 viewBox="0 0 538.58 56.69" style="enable-background:new 0 0 538.58 56.69;" xml:space="preserve">
<style type="text/css">
	.st0{fill:none;}
	.st1{fill:#F7A52D;}
	.st2{fill:#2F2314;}
</style>
<g>
	<rect x="9.37" y="10.18" class="st0" width="542.75" height="39.31"/>
	<path class="st1" d="M12.27,25.01c1.04-2.08,2.46-3.68,4.25-4.8c1.79-1.12,3.79-1.68,6-1.68c1.89,0,3.54,0.38,4.97,1.15
		c1.42,0.77,2.52,1.78,3.29,3.02v-3.79h8.21V45.7h-8.21V41.9c-0.8,1.25-1.91,2.26-3.34,3.02c-1.42,0.77-3.08,1.15-4.97,1.15
		c-2.18,0-4.16-0.57-5.95-1.7c-1.79-1.14-3.21-2.75-4.25-4.85c-1.04-2.1-1.56-4.52-1.56-7.27S11.23,27.09,12.27,25.01z M29.07,27.46
		c-1.14-1.18-2.52-1.78-4.15-1.78c-1.63,0-3.02,0.58-4.15,1.75c-1.14,1.17-1.7,2.78-1.7,4.82s0.57,3.67,1.7,4.87
		c1.14,1.2,2.52,1.8,4.15,1.8c1.63,0,3.02-0.59,4.15-1.78c1.14-1.18,1.7-2.8,1.7-4.85S30.21,28.64,29.07,27.46z"/>
	<path class="st1" d="M53.15,10.18V45.7h-8.21V10.18H53.15z"/>
	<path class="st1" d="M70.62,19.68c1.44-0.77,3.09-1.15,4.94-1.15c2.21,0,4.21,0.56,6,1.68c1.79,1.12,3.21,2.72,4.25,4.8
		c1.04,2.08,1.56,4.5,1.56,7.25s-0.52,5.18-1.56,7.27c-1.04,2.1-2.46,3.71-4.25,4.85c-1.79,1.14-3.79,1.7-6,1.7
		c-1.89,0-3.54-0.38-4.94-1.13c-1.41-0.75-2.51-1.75-3.31-3v3.74H59.1V10.18h8.21V22.7C68.07,21.46,69.18,20.45,70.62,19.68z
		 M77.31,27.43c-1.14-1.17-2.54-1.75-4.2-1.75c-1.63,0-3.02,0.59-4.15,1.78c-1.14,1.18-1.7,2.8-1.7,4.85s0.57,3.66,1.7,4.85
		c1.14,1.18,2.52,1.78,4.15,1.78c1.63,0,3.02-0.6,4.18-1.8c1.15-1.2,1.73-2.82,1.73-4.87S78.45,28.6,77.31,27.43z"/>
	<path class="st1" d="M91.62,25.01c1.04-2.08,2.46-3.68,4.25-4.8c1.79-1.12,3.79-1.68,6-1.68c1.89,0,3.54,0.38,4.97,1.15
		c1.42,0.77,2.52,1.78,3.29,3.02v-3.79h8.21V45.7h-8.21V41.9c-0.8,1.25-1.91,2.26-3.34,3.02c-1.42,0.77-3.08,1.15-4.97,1.15
		c-2.18,0-4.16-0.57-5.95-1.7c-1.79-1.14-3.21-2.75-4.25-4.85c-1.04-2.1-1.56-4.52-1.56-7.27S90.58,27.09,91.62,25.01z
		 M108.42,27.46c-1.14-1.18-2.52-1.78-4.15-1.78c-1.63,0-3.02,0.58-4.15,1.75c-1.14,1.17-1.7,2.78-1.7,4.82s0.57,3.67,1.7,4.87
		c1.14,1.2,2.52,1.8,4.15,1.8c1.63,0,3.02-0.59,4.15-1.78c1.14-1.18,1.7-2.8,1.7-4.85S109.55,28.64,108.42,27.46z"/>
	<path class="st2" d="M159.56,34.27h-18.58c0.13,1.66,0.66,2.94,1.61,3.82s2.1,1.32,3.48,1.32c2.05,0,3.47-0.86,4.27-2.59h8.74
		c-0.45,1.76-1.26,3.34-2.42,4.75c-1.17,1.41-2.63,2.51-4.39,3.31c-1.76,0.8-3.73,1.2-5.9,1.2c-2.62,0-4.96-0.56-7.01-1.68
		c-2.05-1.12-3.65-2.72-4.8-4.8c-1.15-2.08-1.73-4.51-1.73-7.3s0.57-5.22,1.7-7.3c1.14-2.08,2.73-3.68,4.78-4.8
		c2.05-1.12,4.4-1.68,7.06-1.68c2.59,0,4.9,0.54,6.91,1.63c2.02,1.09,3.59,2.64,4.73,4.66c1.14,2.02,1.7,4.37,1.7,7.06
		C159.7,32.64,159.66,33.44,159.56,34.27z M151.3,29.71c0-1.41-0.48-2.53-1.44-3.36c-0.96-0.83-2.16-1.25-3.6-1.25
		c-1.38,0-2.54,0.4-3.48,1.2c-0.94,0.8-1.53,1.94-1.75,3.41H151.3z"/>
	<path class="st2" d="M168.68,44.88c-1.82-0.8-3.26-1.9-4.32-3.29c-1.06-1.39-1.65-2.95-1.78-4.68h8.11c0.1,0.93,0.53,1.68,1.3,2.26
		c0.77,0.58,1.71,0.86,2.83,0.86c1.02,0,1.82-0.2,2.38-0.6c0.56-0.4,0.84-0.92,0.84-1.56c0-0.77-0.4-1.33-1.2-1.7
		c-0.8-0.37-2.1-0.78-3.89-1.22c-1.92-0.45-3.52-0.92-4.8-1.42c-1.28-0.5-2.38-1.28-3.31-2.35c-0.93-1.07-1.39-2.52-1.39-4.34
		c0-1.54,0.42-2.94,1.27-4.2c0.85-1.26,2.1-2.26,3.74-3c1.65-0.74,3.61-1.1,5.88-1.1c3.36,0,6.01,0.83,7.94,2.5
		c1.94,1.66,3.05,3.87,3.34,6.62h-7.58c-0.13-0.93-0.54-1.66-1.22-2.21c-0.69-0.54-1.59-0.82-2.71-0.82c-0.96,0-1.7,0.18-2.21,0.55
		c-0.51,0.37-0.77,0.87-0.77,1.51c0,0.77,0.41,1.34,1.22,1.73c0.82,0.38,2.09,0.77,3.82,1.15c1.98,0.51,3.6,1.02,4.85,1.51
		c1.25,0.5,2.34,1.3,3.29,2.4c0.94,1.1,1.43,2.58,1.46,4.44c0,1.57-0.44,2.97-1.32,4.2c-0.88,1.23-2.14,2.2-3.79,2.9
		c-1.65,0.7-3.56,1.06-5.74,1.06C172.58,46.08,170.5,45.68,168.68,44.88z"/>
	<path class="st2" d="M205.73,38.74v6.96h-4.18c-2.98,0-5.3-0.73-6.96-2.18c-1.66-1.46-2.5-3.83-2.5-7.13V25.73h-3.26v-6.82h3.26
		v-6.53h8.21v6.53h5.38v6.82h-5.38v10.75c0,0.8,0.19,1.38,0.58,1.73c0.38,0.35,1.02,0.53,1.92,0.53H205.73z"/>
	<path class="st2" d="M236.74,18.91V45.7h-8.21v-3.65c-0.83,1.18-1.96,2.14-3.38,2.86c-1.42,0.72-3,1.08-4.73,1.08
		c-2.05,0-3.86-0.46-5.42-1.37c-1.57-0.91-2.78-2.23-3.65-3.96c-0.86-1.73-1.3-3.76-1.3-6.1V18.91h8.16v14.54
		c0,1.79,0.46,3.18,1.39,4.18c0.93,0.99,2.18,1.49,3.74,1.49c1.6,0,2.86-0.5,3.79-1.49c0.93-0.99,1.39-2.38,1.39-4.18V18.91H236.74z
		 M229.11,12.24l-11.57,4.85v-5.66l11.57-5.57V12.24z"/>
	<path class="st2" d="M242.57,25.01c1.04-2.08,2.46-3.68,4.25-4.8c1.79-1.12,3.79-1.68,6-1.68c1.76,0,3.37,0.37,4.82,1.1
		c1.46,0.74,2.6,1.73,3.43,2.98V10.18h8.21V45.7h-8.21v-3.84c-0.77,1.28-1.86,2.3-3.29,3.07c-1.42,0.77-3.08,1.15-4.97,1.15
		c-2.21,0-4.21-0.57-6-1.7c-1.79-1.14-3.21-2.75-4.25-4.85c-1.04-2.1-1.56-4.52-1.56-7.27S241.53,27.09,242.57,25.01z M259.37,27.46
		c-1.14-1.18-2.52-1.78-4.15-1.78c-1.63,0-3.02,0.58-4.15,1.75c-1.14,1.17-1.7,2.78-1.7,4.82s0.57,3.67,1.7,4.87
		c1.14,1.2,2.52,1.8,4.15,1.8c1.63,0,3.02-0.59,4.15-1.78c1.14-1.18,1.7-2.8,1.7-4.85S260.51,28.64,259.37,27.46z"/>
	<path class="st2" d="M275.84,14.86c-0.91-0.85-1.37-1.9-1.37-3.14c0-1.28,0.46-2.34,1.37-3.19c0.91-0.85,2.09-1.27,3.53-1.27
		c1.41,0,2.57,0.42,3.48,1.27c0.91,0.85,1.37,1.91,1.37,3.19c0,1.25-0.46,2.3-1.37,3.14c-0.91,0.85-2.07,1.27-3.48,1.27
		C277.93,16.13,276.75,15.7,275.84,14.86z M283.45,18.91V45.7h-8.21V18.91H283.45z"/>
	<path class="st2" d="M294.51,44.4c-2.1-1.12-3.74-2.72-4.94-4.8c-1.2-2.08-1.8-4.51-1.8-7.3c0-2.75,0.61-5.18,1.82-7.27
		c1.22-2.1,2.88-3.7,4.99-4.82s4.48-1.68,7.1-1.68s4.99,0.56,7.1,1.68s3.78,2.73,4.99,4.82c1.22,2.1,1.82,4.52,1.82,7.27
		s-0.62,5.18-1.85,7.27c-1.23,2.1-2.91,3.71-5.04,4.82c-2.13,1.12-4.5,1.68-7.13,1.68C298.97,46.08,296.61,45.52,294.51,44.4z
		 M305.6,37.25c1.1-1.15,1.66-2.8,1.66-4.94c0-2.14-0.54-3.79-1.61-4.94s-2.39-1.73-3.96-1.73c-1.6,0-2.93,0.57-3.98,1.7
		c-1.06,1.14-1.58,2.79-1.58,4.97c0,2.14,0.52,3.79,1.56,4.94c1.04,1.15,2.34,1.73,3.91,1.73C303.16,38.98,304.49,38.4,305.6,37.25z
		"/>
	<path class="st2" d="M330.22,25.01c1.14-2.08,2.72-3.68,4.75-4.8s4.36-1.68,6.98-1.68c3.36,0,6.17,0.88,8.42,2.64
		c2.26,1.76,3.74,4.24,4.44,7.44h-8.74c-0.74-2.05-2.16-3.07-4.27-3.07c-1.5,0-2.7,0.58-3.6,1.75c-0.9,1.17-1.34,2.84-1.34,5.02
		c0,2.18,0.45,3.85,1.34,5.02c0.9,1.17,2.1,1.75,3.6,1.75c2.11,0,3.54-1.02,4.27-3.07h8.74c-0.71,3.14-2.19,5.6-4.46,7.39
		s-5.07,2.69-8.4,2.69c-2.62,0-4.95-0.56-6.98-1.68c-2.03-1.12-3.62-2.72-4.75-4.8s-1.7-4.51-1.7-7.3S329.09,27.09,330.22,25.01z"/>
	<path class="st2" d="M371,19.9c1.44-0.85,3.04-1.27,4.8-1.27v8.69h-2.26c-2.05,0-3.58,0.44-4.61,1.32
		c-1.02,0.88-1.54,2.42-1.54,4.63V45.7h-8.21V18.91h8.21v4.46C368.36,21.9,369.56,20.74,371,19.9z"/>
	<path class="st2" d="M380.33,14.86c-0.91-0.85-1.37-1.9-1.37-3.14c0-1.28,0.46-2.34,1.37-3.19c0.91-0.85,2.09-1.27,3.53-1.27
		c1.41,0,2.57,0.42,3.48,1.27c0.91,0.85,1.37,1.91,1.37,3.19c0,1.25-0.46,2.3-1.37,3.14c-0.91,0.85-2.07,1.27-3.48,1.27
		C382.42,16.13,381.25,15.7,380.33,14.86z M387.94,18.91V45.7h-8.21V18.91H387.94z"/>
	<path class="st2" d="M393.82,25.01c1.04-2.08,2.46-3.68,4.25-4.8c1.79-1.12,3.79-1.68,6-1.68c1.89,0,3.54,0.38,4.97,1.15
		c1.42,0.77,2.52,1.78,3.29,3.02v-3.79h8.21V45.7h-8.21V41.9c-0.8,1.25-1.91,2.26-3.34,3.02c-1.42,0.77-3.08,1.15-4.97,1.15
		c-2.18,0-4.16-0.57-5.95-1.7c-1.79-1.14-3.21-2.75-4.25-4.85c-1.04-2.1-1.56-4.52-1.56-7.27S392.78,27.09,393.82,25.01z
		 M410.62,27.46c-1.14-1.18-2.52-1.78-4.15-1.78s-3.02,0.58-4.15,1.75c-1.14,1.17-1.7,2.78-1.7,4.82s0.57,3.67,1.7,4.87
		c1.13,1.2,2.52,1.8,4.15,1.8s3.02-0.59,4.15-1.78c1.14-1.18,1.7-2.8,1.7-4.85S411.76,28.64,410.62,27.46z"/>
	<path class="st2" d="M441.41,38.74v6.96h-4.18c-2.98,0-5.3-0.73-6.96-2.18s-2.5-3.83-2.5-7.13V25.73h-3.26v-6.82h3.26v-6.53h8.21
		v6.53h5.38v6.82h-5.38v10.75c0,0.8,0.19,1.38,0.58,1.73c0.38,0.35,1.02,0.53,1.92,0.53H441.41z"/>
	<path class="st2" d="M446.57,14.86c-0.91-0.85-1.37-1.9-1.37-3.14c0-1.28,0.46-2.34,1.37-3.19c0.91-0.85,2.09-1.27,3.53-1.27
		c1.41,0,2.57,0.42,3.48,1.27c0.91,0.85,1.37,1.91,1.37,3.19c0,1.25-0.46,2.3-1.37,3.14c-0.91,0.85-2.07,1.27-3.48,1.27
		C448.66,16.13,447.49,15.7,446.57,14.86z M454.18,18.91V45.7h-8.21V18.91H454.18z"/>
	<path class="st2" d="M472.18,38.02l5.81-19.1h8.74l-9.5,26.78h-10.13l-9.5-26.78h8.78L472.18,38.02z"/>
	<path class="st2" d="M495.29,44.4c-2.1-1.12-3.74-2.72-4.94-4.8c-1.2-2.08-1.8-4.51-1.8-7.3c0-2.75,0.61-5.18,1.82-7.27
		c1.22-2.1,2.88-3.7,4.99-4.82s4.48-1.68,7.1-1.68s4.99,0.56,7.1,1.68s3.78,2.73,4.99,4.82c1.22,2.1,1.82,4.52,1.82,7.27
		s-0.62,5.18-1.85,7.27c-1.23,2.1-2.91,3.71-5.04,4.82c-2.13,1.12-4.5,1.68-7.13,1.68C499.75,46.08,497.39,45.52,495.29,44.4z
		 M506.38,37.25c1.1-1.15,1.66-2.8,1.66-4.94c0-2.14-0.54-3.79-1.61-4.94s-2.39-1.73-3.96-1.73c-1.6,0-2.93,0.57-3.98,1.7
		c-1.06,1.14-1.58,2.79-1.58,4.97c0,2.14,0.52,3.79,1.56,4.94c1.04,1.15,2.34,1.73,3.91,1.73C503.94,38.98,505.28,38.4,506.38,37.25
		z"/>
	<path class="st1" d="M521.07,44.81c-0.91-0.85-1.37-1.9-1.37-3.14c0-1.28,0.46-2.35,1.37-3.22c0.91-0.86,2.09-1.3,3.53-1.3
		c1.41,0,2.57,0.43,3.48,1.3c0.91,0.86,1.37,1.94,1.37,3.22c0,1.25-0.46,2.3-1.37,3.14c-0.91,0.85-2.07,1.27-3.48,1.27
		C523.16,46.08,521.98,45.66,521.07,44.81z"/>
</g>
<g>
</g>
<g>
</g>
<g>
</g>
<g>
</g>
<g>
</g>
<g>
</g>
</svg>
