<?xml version="1.0" standalone="no"?>
<!DOCTYPE svg PUBLIC "-//W3C//DTD SVG 20010904//EN"
 "http://www.w3.org/TR/2001/REC-SVG-20010904/DTD/svg10.dtd">
<svg version="1.0" xmlns="http://www.w3.org/2000/svg"
 width="512.000000pt" height="512.000000pt" viewBox="0 0 512.000000 512.000000"
 preserveAspectRatio="xMidYMid meet">

<g transform="translate(0.000000,512.000000) scale(0.100000,-0.100000)"
fill="#000000" stroke="none">
<path d="M2121 5106 c-52 -29 -50 12 -51 -1053 0 -607 -4 -993 -9 -993 -12 0
-4 -28 -106 370 -150 581 -236 893 -253 915 -9 11 -149 177 -311 367 -186 219
-305 351 -323 359 -37 15 -85 2 -110 -31 -13 -18 -46 -167 -112 -497 l-95
-473 80 -297 c91 -337 179 -686 179 -705 0 -7 -21 -21 -48 -30 -63 -23 -121
-74 -157 -139 -27 -48 -30 -63 -30 -139 0 -73 4 -92 27 -136 29 -55 81 -106
134 -132 l34 -16 0 -1021 c0 -963 1 -1024 19 -1087 47 -172 187 -307 366 -353
87 -22 2127 -23 2223 0 171 40 298 155 364 331 l23 59 3 1038 3 1038 32 14
c49 20 107 82 135 144 72 155 -13 354 -170 403 -21 6 -38 16 -38 22 0 6 13 72
30 146 31 145 75 403 86 512 l6 67 56 28 c82 41 162 125 208 219 38 76 39 80
43 208 4 160 -9 282 -60 536 -61 309 -72 335 -153 335 -35 0 -53 -9 -126 -65
-142 -107 -317 -258 -412 -354 -186 -187 -233 -279 -232 -446 1 -76 6 -109 26
-163 l26 -68 -47 -72 c-69 -106 -139 -232 -230 -412 l-80 -160 -3 842 -3 843
-28 27 -27 28 -433 2 c-346 2 -437 0 -456 -11z m749 -301 l0 -115 -110 0
c-123 0 -158 -11 -178 -55 -15 -33 -15 -57 0 -90 20 -44 55 -55 178 -55 l110
0 0 -100 0 -100 -110 0 c-121 0 -154 -10 -176 -51 -27 -52 -8 -115 41 -137 15
-7 72 -12 135 -12 l110 0 0 -100 0 -100 -110 0 c-123 0 -158 -11 -178 -55 -23
-51 -7 -107 39 -131 19 -10 62 -14 139 -14 l110 0 0 -100 0 -100 -110 0 c-77
0 -120 -4 -139 -14 -66 -35 -66 -137 0 -172 19 -10 62 -14 139 -14 l110 0 0
-115 0 -115 -300 0 -300 0 0 930 0 930 300 0 300 0 0 -115z m1238 -82 c39
-210 53 -326 54 -438 1 -101 -1 -114 -25 -161 -52 -102 -153 -164 -267 -164
-117 0 -215 62 -267 168 -23 46 -28 71 -28 127 0 105 24 146 174 296 114 114
315 289 331 289 4 0 16 -53 28 -117z m-2808 -213 c95 -113 180 -213 189 -224
15 -17 13 -21 -34 -63 -27 -25 -84 -61 -125 -81 -62 -29 -89 -36 -161 -40 -90
-5 -187 11 -195 32 -2 6 23 146 56 311 33 164 60 301 60 304 0 9 28 -23 210
-239z m348 -695 c78 -295 192 -739 192 -748 0 -4 -139 -7 -308 -7 l-309 0 -71
278 c-40 152 -89 342 -110 422 l-39 145 103 -3 c73 -3 126 1 180 13 78 17 196
72 256 118 18 15 36 23 39 19 4 -4 34 -110 67 -237z m2088 -40 c27 -8 64 -15
82 -15 32 0 33 -1 28 -32 -3 -18 -11 -71 -17 -118 -15 -124 -79 -445 -105
-532 -5 -17 -28 -18 -290 -18 -156 0 -284 2 -284 4 0 1 40 90 90 196 92 198
205 414 279 532 l42 67 63 -35 c34 -18 85 -41 112 -49z m200 -946 c38 -39 39
-99 1 -136 l-27 -28 -1428 -3 c-1061 -2 -1434 1 -1455 9 -50 21 -71 88 -43
138 29 53 -47 51 1493 48 l1433 -2 26 -26z m-168 -1381 l-3 -1013 -26 -56
c-31 -66 -84 -120 -148 -151 l-46 -23 -1075 0 -1075 0 -57 28 c-61 30 -105 74
-140 140 l-23 42 -3 1023 -2 1022 1300 0 1300 0 -2 -1012z"/>
<path d="M1421 2247 c-95 -55 -40 -206 67 -182 73 16 103 109 51 160 -30 31
-85 41 -118 22z"/>
<path d="M1421 1847 c-51 -30 -50 -15 -51 -715 0 -715 -2 -696 59 -722 39 -16
82 -5 112 26 l24 26 0 669 0 669 -26 25 c-30 31 -85 41 -118 22z"/>
</g>
</svg>
