<?xml version="1.0" encoding="utf-8"?>
<!-- Generator: Adobe Illustrator 25.0.0, SVG Export Plug-In . SVG Version: 6.00 Build 0)  -->
<svg version="1.1" id="Camada_1" xmlns="http://www.w3.org/2000/svg" xmlns:xlink="http://www.w3.org/1999/xlink" x="0px" y="0px"
	 viewBox="0 0 209 190" style="enable-background:new 0 0 209 190;" xml:space="preserve">
<style type="text/css">
	.st0{fill:#202024;}
	.st1{fill-rule:evenodd;clip-rule:evenodd;fill:#FFFFFF;}
	.st2{fill-rule:evenodd;clip-rule:evenodd;fill:#7159C1;}
</style>
<path class="st0" d="M194.5,0h-180c-2.8,0-5,2.2-5,5v180c0,2.8,2.2,5,5,5h180c2.8,0,5-2.2,5-5V5C199.5,2.2,197.3,0,194.5,0z"/>
<path class="st1" d="M138.2,53c0,2.9,1.2,4.3,3.6,4.3c1.4,0,3-0.5,4.7-1.4l2.1,6.2c-2.6,1.4-5,2.1-7.3,2.1c-3.3,0-5.9-0.9-7.8-2.8
	c-1.8-1.8-2.7-4.5-2.7-7.9V41.3h-6v-6.1h6V25l7.5-2.3v12.5h10.9v6.1h-10.9L138.2,53L138.2,53z M89.6,50.9H68.2
	c0.4,2,1.2,3.6,2.5,4.8c1.3,1.2,2.8,1.8,4.5,1.8c3.2,0,5.5-1.2,7-3.7l6.7,1.4c-1.2,2.9-3,5-5.4,6.5c-2.4,1.5-5.1,2.2-8.3,2.2
	c-4.1,0-7.5-1.4-10.3-4.2c-2.8-2.8-4.2-6.4-4.2-10.7c0-4.4,1.4-8,4.2-10.8c2.8-2.8,6.3-4.2,10.4-4.2c3.8,0,7.1,1.3,9.9,4
	c2.8,2.7,4.2,6.1,4.4,10.4V50.9z M71,41.8c-1.3,0.9-2.2,2.2-2.6,3.8H82c-0.5-1.7-1.3-3-2.5-3.9c-1.2-0.9-2.6-1.3-4.2-1.3
	C73.8,40.5,72.4,40.9,71,41.8z M53.9,38.1c2.1,2.2,3.1,5.1,3.1,8.6v17.2h-7.5V48.2c0-2-0.5-3.6-1.6-4.8c-1-1.2-2.4-1.8-4.2-1.8
	c-4.7,0-7,3.2-7,9.7v12.5h-7.5V35.7h7.5v2.5c2.3-2.3,5.2-3.4,8.9-3.4C49.1,34.8,51.8,35.9,53.9,38.1z M113,63.8h8.9l-10-13.7
	l10-14.5H113l-6.7,9.7l-6.7-9.7h-8.9l10.1,14.5L90.8,63.8h8.9l6.7-9.2L113,63.8z M47.5,73.2v40.3H55V73.2H47.5z M88.3,100.5H66.9
	c0.4,2,1.2,3.6,2.5,4.8c1.3,1.2,2.8,1.8,4.5,1.8c3.2,0,5.5-1.2,7-3.7l6.7,1.4c-1.2,2.9-3,5-5.4,6.5c-2.4,1.5-5.1,2.2-8.3,2.2
	c-4.1,0-7.5-1.4-10.3-4.2c-2.8-2.8-4.2-6.4-4.2-10.7c0-4.4,1.4-8,4.2-10.8c2.8-2.8,6.3-4.2,10.4-4.2c3.8,0,7.1,1.3,9.9,4
	c2.8,2.7,4.2,6.1,4.4,10.4V100.5z M69.7,91.5c-1.3,0.9-2.2,2.2-2.6,3.8h13.6c-0.5-1.7-1.3-3-2.5-3.9c-1.2-0.9-2.6-1.3-4.2-1.3
	C72.5,90.1,71.1,90.6,69.7,91.5z M88.6,85.2l12.9,28.2h5.5L120,85.2h-8l-7.7,17.4l-7.7-17.4H88.6z M149.2,100.5h-21.5
	c0.4,2,1.2,3.6,2.5,4.8c1.3,1.2,2.8,1.8,4.5,1.8c3.2,0,5.5-1.2,7-3.7l6.7,1.4c-1.2,2.9-3,5-5.4,6.5c-2.4,1.5-5.1,2.2-8.3,2.2
	c-4.1,0-7.5-1.4-10.3-4.2c-2.8-2.8-4.2-6.4-4.2-10.7c0-4.4,1.4-8,4.2-10.8c2.8-2.8,6.3-4.2,10.4-4.2c3.8,0,7.1,1.3,9.9,4
	c2.8,2.7,4.2,6.1,4.4,10.4V100.5z M130.6,91.5c-1.3,0.9-2.2,2.2-2.6,3.8h13.6c-0.5-1.7-1.3-3-2.5-3.9c-1.2-0.9-2.6-1.3-4.2-1.3
	C133.3,90.1,131.9,90.6,130.6,91.5z M153.7,73.2v40.3h7.5V73.2H153.7z M62.7,160.3h-6.2l-6.1-16.6l-6.2,16.6H38L27.6,132h8l5.9,16.9
	l6-16.9h5.8l6,16.9l5.9-16.9h8L62.7,160.3z M81.4,147.3h21.5v-2.6c-0.1-4.2-1.6-7.7-4.4-10.4c-2.8-2.7-6.1-4-9.9-4
	c-4.1,0-7.6,1.4-10.4,4.2c-2.8,2.8-4.2,6.4-4.2,10.8c0,4.4,1.4,7.9,4.2,10.7c2.8,2.8,6.2,4.2,10.3,4.2c3.2,0,5.9-0.7,8.3-2.2
	c2.4-1.5,4.2-3.6,5.4-6.5l-6.7-1.4c-1.5,2.5-3.8,3.7-7,3.7c-1.7,0-3.2-0.6-4.5-1.8C82.6,150.9,81.8,149.3,81.4,147.3z M81.6,142.1
	c0.4-1.7,1.3-2.9,2.6-3.8c1.3-0.9,2.8-1.4,4.3-1.4c1.6,0,3,0.4,4.2,1.3s2,2.2,2.5,3.9H81.6z M134,147.3h-21.5c0.4,2,1.2,3.6,2.5,4.8
	c1.3,1.2,2.8,1.8,4.5,1.8c3.2,0,5.5-1.2,7-3.7l6.7,1.4c-1.2,2.9-3,5-5.4,6.5c-2.4,1.5-5.1,2.2-8.3,2.2c-4.1,0-7.5-1.4-10.3-4.2
	c-2.8-2.8-4.2-6.4-4.2-10.7c0-4.4,1.4-8,4.2-10.8c2.8-2.8,6.3-4.2,10.4-4.2c3.8,0,7.1,1.3,9.9,4c2.8,2.7,4.2,6.1,4.4,10.4V147.3z
	 M115.4,138.3c-1.3,0.9-2.2,2.2-2.6,3.8h13.6c-0.5-1.7-1.3-3-2.5-3.9s-2.6-1.3-4.2-1.3C118.2,136.9,116.7,137.4,115.4,138.3z
	 M144.6,160.3v-10.7l11.3,10.7h10.2l-14.7-14.1l13.6-14.1h-9.4l-11,11.1v-23.2h-7.5v40.3H144.6z"/>
<path class="st2" d="M21.4,45.2v-7.7L0,45.4l0,0v0v7.9v0l0,0l21.4,7.9v-7.7l-11-4.2L21.4,45.2z M187.6,161.7V154l11-4.2l-11-4.2
	v-7.7l21.3,7.9l0.1,0v0v7.9v0l-0.1,0L187.6,161.7z M166.2,110.4v6.2H190v-6.2H166.2z M20.2,117.8v-6.2h23.7v6.2H20.2z M178.4,127
	l-12.6,40.3h7.5l12.6-40.3H178.4z"/>
</svg>
