<?xml version="1.0" standalone="no"?>
<!DOCTYPE svg PUBLIC "-//W3C//DTD SVG 20010904//EN"
 "http://www.w3.org/TR/2001/REC-SVG-20010904/DTD/svg10.dtd">
<svg version="1.0" xmlns="http://www.w3.org/2000/svg"
 width="512.000000pt" height="512.000000pt" viewBox="0 0 512.000000 512.000000"
 preserveAspectRatio="xMidYMid meet">

<g transform="translate(0.000000,512.000000) scale(0.100000,-0.100000)"
fill="#000000" stroke="none">
<path d="M2345 5114 c-435 -45 -817 -180 -1166 -413 -633 -422 -1038 -1064
-1141 -1806 -16 -120 -17 -525 0 -640 83 -586 311 -1062 705 -1472 395 -410
904 -669 1494 -760 173 -27 554 -24 752 6 563 84 1047 318 1417 686 419 416
668 961 691 1510 24 571 -220 1035 -664 1263 -100 51 -244 104 -322 117 -22 4
-43 10 -45 14 -2 3 34 33 82 66 254 176 504 378 662 535 258 257 330 445 214
564 -135 139 -531 68 -1159 -207 -292 -127 -750 -365 -1029 -534 -48 -30 -90
-53 -91 -51 -1 2 -8 27 -14 56 -31 149 5 281 127 462 61 91 83 153 83 236 1
161 -87 285 -245 347 -40 15 -80 20 -181 22 -71 2 -148 1 -170 -1z m305 -222
c67 -33 85 -64 85 -143 0 -65 -2 -70 -57 -150 -65 -95 -108 -186 -134 -280
-24 -86 -24 -272 0 -349 30 -98 32 -92 -21 -124 -215 -131 -619 -439 -805
-614 l-67 -63 -41 11 c-23 6 -79 11 -124 11 -97 0 -183 -24 -257 -72 -120 -77
-292 -325 -468 -676 -64 -128 -72 -163 -45 -202 31 -44 68 -51 331 -57 351 -9
561 15 684 76 103 52 191 157 231 275 l16 50 194 66 c250 85 438 164 727 305
268 131 523 269 731 397 l145 89 95 -5 c466 -26 832 -298 965 -718 47 -149 59
-241 59 -434 0 -192 -12 -285 -60 -465 -136 -506 -499 -981 -974 -1273 -179
-110 -426 -213 -642 -268 -1115 -283 -2242 223 -2749 1232 -232 463 -306 1018
-203 1527 130 647 553 1229 1144 1574 335 196 747 311 1090 304 86 -1 113 -5
150 -24z m2207 -240 l22 -7 -19 -44 c-50 -110 -273 -334 -537 -539 -352 -273
-840 -581 -1306 -825 -106 -56 -108 -56 -116 -34 -37 94 -54 131 -87 192 -45
83 -104 173 -153 233 l-35 44 24 18 c13 10 117 74 230 143 471 286 924 514
1333 671 292 112 558 173 644 148z m-2284 -1241 c47 -69 103 -181 140 -277
l16 -42 -127 -57 c-246 -111 -593 -241 -619 -231 -7 3 -13 13 -13 23 0 27 -54
135 -86 174 -60 70 -63 58 39 147 129 113 234 196 394 313 l138 100 34 -38
c18 -21 56 -71 84 -112z m-961 -444 c52 -22 116 -83 146 -141 23 -43 27 -63
26 -131 0 -95 -27 -159 -93 -218 -58 -52 -98 -66 -245 -82 -141 -16 -453 -20
-474 -6 -23 14 198 386 302 508 79 92 217 120 338 70z"/>
<path d="M1666 4484 c-292 -93 -380 -456 -163 -667 155 -151 404 -149 557 3
195 196 136 524 -115 642 -82 38 -201 47 -279 22z m224 -218 c48 -31 90 -110
90 -166 -1 -112 -122 -215 -229 -195 -155 29 -223 208 -123 327 61 73 180 88
262 34z"/>
<path d="M3331 2847 c-95 -55 -40 -206 67 -182 73 16 103 109 51 160 -30 31
-85 41 -118 22z"/>
<path d="M4159 2396 c-108 -42 -191 -113 -235 -202 -165 -338 180 -693 524
-539 70 31 148 107 186 181 100 195 17 438 -183 537 -57 28 -76 32 -160 34
-63 2 -108 -2 -132 -11z m210 -206 c165 -84 134 -328 -48 -369 -155 -35 -289
129 -222 274 47 102 171 146 270 95z"/>
<path d="M3335 2318 c-30 -17 -42 -38 -55 -88 -38 -153 -139 -267 -307 -347
-252 -121 -580 -105 -797 37 -39 26 -82 59 -96 75 -55 60 -125 69 -167 22 -49
-54 -34 -106 56 -189 170 -158 416 -238 685 -225 354 18 646 186 769 441 61
126 71 221 28 260 -25 22 -90 30 -116 14z"/>
<path d="M1159 1796 c-108 -42 -191 -113 -235 -202 -165 -338 180 -693 524
-539 70 31 148 107 186 181 100 195 17 438 -183 537 -57 28 -76 32 -160 34
-63 2 -108 -2 -132 -11z m210 -206 c165 -84 134 -328 -48 -369 -155 -35 -289
129 -222 274 47 102 171 146 270 95z"/>
<path d="M3359 1396 c-108 -42 -191 -113 -235 -202 -165 -338 180 -693 524
-539 70 31 148 107 186 181 100 195 17 438 -183 537 -57 28 -76 32 -160 34
-63 2 -108 -2 -132 -11z m210 -206 c165 -84 134 -328 -48 -369 -155 -35 -289
129 -222 274 47 102 171 146 270 95z"/>
<path d="M2159 1196 c-108 -42 -191 -113 -235 -202 -165 -338 180 -693 524
-539 70 31 148 107 186 181 100 195 17 438 -183 537 -57 28 -76 32 -160 34
-63 2 -108 -2 -132 -11z m210 -206 c165 -84 134 -328 -48 -369 -155 -35 -289
129 -222 274 47 102 171 146 270 95z"/>
</g>
</svg>
