<?xml version="1.0" standalone="no"?>
<!DOCTYPE svg PUBLIC "-//W3C//DTD SVG 20010904//EN"
 "http://www.w3.org/TR/2001/REC-SVG-20010904/DTD/svg10.dtd">
<svg version="1.0" xmlns="http://www.w3.org/2000/svg"
 width="512.000000pt" height="512.000000pt" viewBox="0 0 512.000000 512.000000"
 preserveAspectRatio="xMidYMid meet">

<g transform="translate(0.000000,512.000000) scale(0.100000,-0.100000)"
fill="#000000" stroke="none">
<path d="M2513 5100 c-29 -26 -36 -81 -32 -238 5 -151 14 -172 79 -172 65 0
74 21 79 172 1 71 0 150 -4 174 -7 51 -37 84 -75 84 -14 0 -36 -9 -47 -20z"/>
<path d="M1453 4665 c-28 -20 -37 -59 -19 -93 8 -15 63 -75 124 -134 89 -88
114 -108 139 -108 40 0 73 33 73 73 0 28 -16 49 -123 155 -128 128 -148 139
-194 107z"/>
<path d="M3472 4557 c-105 -105 -122 -127 -122 -154 0 -40 33 -73 73 -73 25 0
50 20 139 108 128 125 145 151 127 193 -6 17 -20 34 -30 39 -43 24 -63 12
-187 -113z"/>
<path d="M2398 4445 c-137 -34 -275 -124 -369 -242 -70 -88 -113 -175 -141
-285 -30 -119 -23 -301 16 -408 15 -41 30 -82 32 -90 3 -11 -126 -90 -479
-293 -269 -154 -497 -292 -514 -310 -30 -31 -348 -508 -378 -567 -8 -16 -15
-46 -15 -67 0 -71 26 -101 181 -203 l144 -95 5 -445 5 -445 28 -47 c15 -26 39
-55 55 -66 76 -53 301 -172 325 -172 37 0 67 33 67 73 0 43 -8 50 -160 137
-69 39 -135 81 -148 93 l-22 23 2 373 3 372 490 -322 c270 -177 504 -326 521
-332 43 -13 97 -1 134 29 16 14 89 116 162 227 l133 201 3 -694 c1 -381 0
-695 -2 -697 -2 -3 -183 99 -403 225 -219 126 -412 236 -430 246 -44 22 -76
20 -101 -7 -27 -28 -28 -67 -4 -95 17 -21 833 -494 927 -538 64 -31 125 -31
190 -1 44 21 1183 673 1425 816 77 46 100 65 125 105 l30 49 5 446 5 446 144
95 c155 102 181 132 181 203 0 21 -7 51 -15 67 -34 66 -365 557 -391 581 -26
23 -199 125 -802 470 -130 74 -181 108 -178 119 3 8 17 49 32 90 25 69 28 87
28 225 1 139 -1 156 -28 237 -51 156 -103 212 -165 177 -47 -27 -49 -59 -9
-146 47 -101 58 -153 58 -260 0 -122 -18 -182 -115 -378 -46 -93 -92 -192
-103 -220 -18 -46 -22 -50 -57 -53 -21 -2 -41 0 -45 5 -4 4 5 76 21 158 16 83
29 164 29 181 0 61 -72 95 -119 57 -17 -15 -28 -52 -56 -203 -19 -102 -35
-186 -35 -187 0 -2 -27 -3 -60 -3 -33 0 -60 1 -60 3 0 1 -16 85 -35 187 -28
151 -39 188 -56 203 -47 38 -119 3 -119 -59 0 -16 13 -96 29 -179 l28 -150
-35 -8 c-20 -4 -40 -6 -44 -5 -5 2 -28 48 -52 103 -24 55 -71 154 -104 220
-80 156 -96 219 -90 355 8 162 58 278 169 387 109 107 221 153 373 153 72 0
105 -6 161 -26 105 -38 132 -41 161 -13 26 24 31 58 13 91 -13 24 -99 64 -183
83 -76 18 -242 18 -318 0z m-341 -1262 c67 -147 67 -149 53 -192 -7 -23 -10
-59 -6 -92 8 -70 8 -95 0 -147 -9 -60 2 -107 35 -145 20 -23 30 -47 34 -86 15
-125 109 -256 226 -314 61 -30 72 -32 171 -32 92 0 112 3 160 26 128 60 223
193 237 329 4 42 13 76 27 95 17 24 21 43 19 95 -1 36 -2 79 -3 95 0 17 2 54
6 84 4 33 1 69 -6 92 -14 42 -12 51 57 201 27 59 40 77 51 73 28 -10 892 -510
892 -515 0 -3 -320 -189 -712 -414 -446 -257 -721 -409 -738 -409 -16 0 -292
153 -738 409 -392 225 -712 412 -712 415 0 3 21 18 48 32 26 14 227 130 447
256 220 127 403 231 406 231 3 0 24 -39 46 -87z m813 -262 c0 -13 -9 -21 -30
-26 -58 -13 -80 -83 -37 -122 12 -12 31 -23 42 -25 12 -2 21 -13 23 -26 l3
-22 -311 0 -311 0 3 23 c2 14 11 23 25 25 28 4 63 47 63 76 0 32 -26 64 -60
71 -21 5 -30 13 -30 26 0 18 11 19 310 19 299 0 310 -1 310 -19z m-1153 -697
c390 -224 711 -410 716 -414 12 -11 -344 -542 -357 -532 -6 5 -312 206 -681
447 -368 241 -676 443 -683 450 -11 10 14 54 133 234 81 121 151 221 156 221
5 0 327 -183 716 -406z m2557 186 c80 -122 146 -223 146 -226 0 -2 -57 -42
-127 -88 -114 -74 -1186 -777 -1239 -812 -20 -14 -28 -4 -191 243 -94 142
-173 263 -177 269 -3 7 98 71 267 168 149 86 470 271 712 410 242 140 445 255
452 255 6 1 77 -98 157 -219z m-1459 113 c-31 -126 -124 -203 -243 -203 -67 0
-115 17 -161 56 -37 31 -76 96 -86 142 l-7 32 252 0 252 0 -7 -27z m1253
-1510 c-26 -25 -1417 -827 -1424 -820 -2 2 -3 316 -2 697 l3 694 133 -201 c73
-111 146 -213 162 -227 37 -30 91 -42 134 -29 17 6 252 155 521 332 l490 321
3 -372 2 -372 -22 -23z"/>
<path d="M1096 3809 c-33 -26 -36 -79 -6 -109 18 -18 33 -20 193 -20 168 0
174 1 195 23 29 31 28 72 -3 102 -24 25 -27 25 -188 25 -151 0 -166 -2 -191
-21z"/>
<path d="M3645 3805 c-32 -31 -33 -74 -2 -103 22 -21 32 -22 195 -22 159 0
174 2 192 20 30 30 27 83 -6 109 -25 19 -40 21 -191 21 -161 0 -164 0 -188
-25z"/>
</g>
</svg>
